<?xml version="1.0" encoding="utf-8"?>
<!-- Generator: Adobe Illustrator 26.5.3, SVG Export Plug-In . SVG Version: 6.00 Build 0)  -->
<svg version="1.1" id="Layer_1" xmlns="http://www.w3.org/2000/svg" xmlns:xlink="http://www.w3.org/1999/xlink" x="0px" y="0px"
	 viewBox="0 0 839.8 116.2" style="enable-background:new 0 0 839.8 116.2;" xml:space="preserve">
<style type="text/css">
	.st0{fill:#42170C;}
	.st1{fill:#EF4723;}
	.st2{fill:#FFFFFF;}
	.st3{fill:url(#SVGID_1_);}
	.st4{fill:url(#SVGID_00000104673819055588823980000017787923086569773753_);}
</style>
<linearGradient id="SVGID_1_" gradientUnits="userSpaceOnUse" x1="-41.01" y1="-162.2903" x2="699.577" y2="192.3494">
	<stop  offset="0" style="stop-color:#40190F"/>
	<stop  offset="1" style="stop-color:#EF4823"/>
</linearGradient>
<path class="st3" d="M524.4,11.6c15.5,0.5,29.5,5.2,39.7,18.1c6.1,7.7,9,16.7,9.3,26.5c0.3,11.6-2.4,22.2-9.9,31.3
	c-8.3,10.1-19.3,15.6-32,16.7c-17.3,1.6-32.9-2.9-45.1-16.1c-7.1-7.7-10.4-16.9-10.7-27.4c-0.4-11.5,1.4-22.4,8.9-31.5
	C494.7,16.9,508.3,11.9,524.4,11.6z M506.5,58c-0.2,10.7,7,18.4,17.1,18.6c11.3,0.1,19.1-7.1,19.4-18c0.2-10.2-7.6-18.5-17.7-18.7
	C514.4,39.6,506.7,47.1,506.5,58z M581.8,101.6c0-29.2,0-58.5,0-88.2c1.8,0,3.6,0,5.3,0c13.5,0.2,27.1,0.1,40.6,0.7
	c19.3,0.7,34.8,11.6,40.6,28c6.4,18.1,1.7,37.9-11.9,49.2c-7.3,6.1-16,9.7-25.2,10.1C614.8,102.1,598.5,101.6,581.8,101.6z
	 M611.4,75c5,0,9.5,0.4,14-0.1c8.7-0.9,14.4-6.4,15.1-13.9c0.9-9.4-2.8-16.7-10.8-18.9c-5.8-1.6-12-1.8-18.4-2.6
	C611.4,51.9,611.4,63.3,611.4,75z M711.6,70.1c10.3,0,20.6,0,30.9,0c3.8,0,4.8-1,4.9-4.7c0-4.6,0-9.1,0-13.7c0-5.1-0.4-5.5-5.4-5.5
	c-9.9,0-19.9,0-29.8-0.1c-1.4,0-2.7,0-4.1,0c0-2.3,0-4.1,0-6.1c1.6,0,2.8,0,4.1,0c9.8,0,19.6,0,29.5,0c5.9,0,6.3-0.4,6.3-6.4
	c0-4.9,0-9.8,0-14.7c0-4-0.9-4.8-5-4.8c-20.5,0-40.9,0-61.4,0c-1,0-2,0.1-2.9,0.2c0,29.7,0,59,0,88.6c14.8,0,29.4,0,44,0
	c7.1,0,14.3,0,21.4,0c2.7,0,4-1.4,4-4.2c0-6.1,0-12.2,0-18.2c0-3-1.3-4.2-4.2-4.2c-8.7,0-17.3,0-26,0c-3.2,0-6.5,0-9.9,0
	c0-2.1,0-3.8,0-6.1C709.3,70.1,710.4,70.1,711.6,70.1z M791.2,43.5c-10.1,10.7-20.2,21.4-30.2,32.2c-1.3,1.4-2.4,3.5-2.6,5.3
	c-0.5,5.2-0.5,10.5-0.5,15.8c-0.1,5.4,0.4,5.9,5.7,5.9c21.5,0,43-0.1,64.5-0.1c0.8,0,1.6-0.1,2.4-0.2c0-9.2,0-18.1,0-27.3
	c-11.7,0-23.2,0-35.3,0c0.9-1.1,1.4-1.7,1.9-2.2C807.3,61.8,817.6,51,827.7,40c1.2-1.3,2.3-3.4,2.4-5.2c0.3-5.8,0-11.7,0.1-17.5
	c0-2.6-1.1-3.5-3.6-3.5c-21.5,0.1-43,0.1-64.5,0.1c-3.1,0-4.4,1.3-4.4,4.4c0.1,6.2,0,12.4,0,18.6c0,4.3,0.6,4.8,4.8,5
	c1.4,0.1,2.8,0.1,4.2,0.1c8.4,0,16.7,0,25.7,0C791.7,42.8,791.4,43.2,791.2,43.5z M467.8,16.9c0-2.6-1.9-3.6-4.3-3.5
	c-11.6,0.2-23.1,0.1-34.6,0.8c-10.9,0.7-20.6,4.7-28.3,12.8c-8.9,9.3-12.1,20.6-11.9,33.3c0.3,18.9,12.2,35.4,30.5,40.1
	c15.8,4,32,2.6,48.1,2.7c0.2,0,0.3-0.3,0.3-0.3c0-9.4,0-18.7,0-28.3c-9.5,0-18.7,0.1-28-0.1c-3.2-0.1-6.6-0.5-9.6-1.5
	c-7.2-2.5-11.2-9.7-10.4-17.9c0.6-6.5,5.5-11,13.4-12.1c2.9-0.4,5.8-0.7,8.7-0.7c8.5-0.1,17,0,26.1,0
	C467.8,33.4,467.9,25.1,467.8,16.9z M201,58.4c-0.5-25.6,19.2-42.1,39.7-44.9c14.3-1.9,27.9-0.1,39.4,9.2
	c15.4,12.4,19.8,28.9,15.6,47.7c-4.2,18.6-19.7,31.5-39.2,33.7c-8.7,1-17.3,0.4-25.5-2.7C211.4,94.3,201,79.3,201,58.4z M232.7,58.8
	c0,10.6,6.6,17.4,16.8,17.4c9.4,0,16.4-7.2,16.3-16.9c-0.1-10.7-6.6-17.7-16.5-17.7C239.3,41.7,232.7,48.6,232.7,58.8z M193,63.4
	c0.5,21.6-18.5,38.8-43.1,40.9c-14,1.2-26.7-2.1-37.5-11.3C99.9,82.4,95.1,68.3,97,52.3c3.1-26.6,24.1-38.7,45.9-39.4
	c12.3-0.3,23.7,2.3,33.5,10C187.8,31.9,192.9,44,193,63.4z M162,58.6c0-10-7.4-17.5-17-17.4c-9.9,0.1-17.1,7.6-17.1,17.8
	c0,9.5,7.5,17.1,17,17.1C155.1,76.2,162,69.1,162,58.6z M94.4,98.6c-8-12.9-15.9-25.8-24.1-38.6c-1.6-2.5-1.1-4,0.3-6.1
	c8.1-11.7,16.2-23.4,24.2-35.2c0.7-1,1.3-2,2.3-3.6c-9.6,0-18.3,0.5-27-0.2c-6.6-0.5-10.6,1.6-13.8,7.5
	c-4.9,8.8-10.7,17.1-16.1,25.6c-0.2,0-0.4-0.1-0.7-0.1c0-10.9,0-21.7,0-32.6c-10.3,0-20.2,0-30.1,0c0,29,0,57.7,0,86.5
	c10,0,19.8,0,30,0c0-11.3,0-22.3,0-33.4c7,10.2,13.3,20.5,19.5,30.8c1.2,2,2.4,2.9,4.9,2.9c6.4-0.2,12.9-0.1,19.3-0.1
	c4.3,0,8.5,0,13.3,0C95.5,100.5,95,99.6,94.4,98.6z M370.8,101.8c0-8.3,0-16.5,0-25.2c-11.7,0-23.2,0-35,0c0-20.7,0-40.9,0-61.3
	c-10.2,0-20.1,0-30.3,0c0,28.8,0,57.5,0,86.5C327.5,101.8,349.1,101.8,370.8,101.8z"/>
</svg>
